HIERARCHY
ROOT base
{
	OFFSET 0.000000 0.000000 0.000000
	CHANNELS 6 Xposition Yposition Zposition Xrotation Yrotation Zrotation
	JOINT torso
	{
		OFFSET 0.000000 0.000000 0.957307
		CHANNELS 3 Xrotation Yrotation Zrotation
		JOINT head
		{
			OFFSET 0.000000 0.000000 0.976604
			CHANNELS 3 Xrotation Yrotation Zrotation
			End Site
			{
				OFFSET 0.000000 -0.559124 -0.350384
			}
		}
		JOINT upper.left.arm
		{
			OFFSET 0.424934 0.000000 0.738044
			CHANNELS 6 Xposition Yposition Zposition Xrotation Yrotation Zrotation
			JOINT lower.left.arm
			{
				OFFSET 0.000000 -0.231105 -0.641129
				CHANNELS 3 Xrotation Yrotation Zrotation
				End Site
				{
					OFFSET 0.000000 -0.305655 -0.082005
				}
			}
		}
		JOINT upper.right.arm
		{
			OFFSET -0.424934 0.000000 0.738044
			CHANNELS 6 Xposition Yposition Zposition Xrotation Yrotation Zrotation
			JOINT lower.right.arm
			{
				OFFSET 0.000000 -0.231105 -0.641129
				CHANNELS 3 Xrotation Yrotation Zrotation
				End Site
				{
					OFFSET 0.000000 -0.305655 -0.082005
				}
			}
		}
	}
	JOINT upper.left.leg
	{
		OFFSET 0.417479 0.000000 0.949852
		CHANNELS 6 Xposition Yposition Zposition Xrotation Yrotation Zrotation
		JOINT mid.left.leg
		{
			OFFSET 0.007455 0.000000 -0.283290
			CHANNELS 3 Xrotation Yrotation Zrotation
			JOINT lower.left.leg
			{
				OFFSET 0.000000 0.000000 -0.372749
				CHANNELS 3 Xrotation Yrotation Zrotation
				End Site
				{
					OFFSET 0.000000 0.000000 -0.305655
				}
			}
		}
	}
	JOINT upper.right.leg
	{
		OFFSET -0.417479 0.000000 0.949852
		CHANNELS 6 Xposition Yposition Zposition Xrotation Yrotation Zrotation
		JOINT mid.right.leg
		{
			OFFSET -0.007455 0.000000 -0.283290
			CHANNELS 3 Xrotation Yrotation Zrotation
			JOINT lower.right.leg
			{
				OFFSET 0.000000 0.000000 -0.372749
				CHANNELS 3 Xrotation Yrotation Zrotation
				End Site
				{
					OFFSET 0.000000 0.000000 -0.305655
				}
			}
		}
	}
}
MOTION
Frames: 9
Frame Time: 0.041667
0.000000 0.000000 0.000000 -0.000000 0.000000 -0.000000 -0.000000 0.000000 -0.000000 0.000000 -0.000000 -0.000000 0.424934 0.000000 0.738044 -0.000000 0.000000 -0.000000 -0.000000 0.000000 -0.000000 -0.424934 -0.000000 0.738044 0.000003 0.000000 -0.000000 0.000002 0.000000 -0.000000 0.417479 0.000000 0.949852 0.000000 -0.000001 0.000001 -0.000000 0.000000 -0.000001 -0.000000 0.000000 -0.000001 -0.417479 0.000000 0.949852 -0.000000 -0.000000 -0.000000 -0.000000 -0.000000 0.000001 0.000000 -0.000000 0.000000 
0.000000 0.000000 0.000000 -0.000000 0.000000 -0.000000 -0.000000 -0.000000 -0.607185 -0.000002 0.000000 -0.000000 0.424934 0.000000 0.738044 -0.000000 0.000000 -0.000000 -0.000000 0.000000 0.000000 -0.424934 0.000000 0.738044 -0.781870 0.398079 -0.291830 0.454425 -0.821465 -0.943462 0.417479 0.000000 0.949852 0.000000 -0.000001 0.000001 -0.000000 0.000000 -0.000001 -0.000000 0.000000 -0.000001 -0.417479 0.000000 0.949852 -0.000000 -0.000000 -0.000000 -0.000000 -0.000000 0.000001 0.000000 -0.000000 0.000000 
0.000000 0.000000 0.000000 -0.000000 0.000000 -0.000000 -0.000000 -0.000000 -2.438698 0.000002 -0.000000 -0.000000 0.424934 0.000000 0.738044 -0.000002 -0.000000 -0.000000 -0.000000 0.000000 -0.000000 -0.424934 0.000000 0.738044 -3.136014 1.626489 -1.141829 1.792954 -3.364292 -3.774246 0.417479 0.000000 0.949852 0.000000 -0.000001 0.000001 -0.000000 0.000000 -0.000001 -0.000000 0.000000 -0.000001 -0.417479 0.000000 0.949852 -0.000000 -0.000000 -0.000000 -0.000000 -0.000000 0.000001 0.000000 -0.000000 0.000000 
0.000000 0.000000 0.000000 -0.000000 0.000000 -0.000000 -0.000000 -0.000000 -5.428260 0.000000 -0.000000 0.000000 0.424934 0.000000 0.738044 -0.000000 0.000000 -0.000000 0.000002 0.000000 -0.000000 -0.424934 0.000000 0.738044 -6.964945 3.715066 -2.427403 3.832007 -7.713794 -8.349420 0.417479 0.000000 0.949852 0.000000 -0.000001 0.000001 -0.000000 0.000000 -0.000001 -0.000000 0.000000 -0.000001 -0.417479 0.000000 0.949852 -0.000000 -0.000000 -0.000000 -0.000000 -0.000000 0.000001 0.000000 -0.000000 0.000000 
0.000000 0.000000 0.000000 -0.000000 0.000000 -0.000000 -0.000000 -0.000000 -9.354577 0.000000 0.000000 0.000001 0.424934 0.000000 0.738044 0.000002 0.000000 -0.000000 -0.000002 -0.000000 -0.000000 -0.424934 0.000000 0.738044 -11.969364 6.596669 -3.912416 6.204936 -13.758517 -14.287274 0.417479 0.000000 0.949852 0.000000 -0.000001 0.000001 -0.000000 0.000000 -0.000001 -0.000000 0.000000 -0.000001 -0.417479 0.000000 0.949852 -0.000000 -0.000000 -0.000000 -0.000000 -0.000000 0.000001 0.000000 -0.000000 0.000000 
0.000000 0.000000 0.000000 -0.000000 0.000000 -0.000000 -0.000000 -0.000000 -13.814095 0.000002 -0.000000 -0.000001 0.424934 0.000000 0.738044 -0.000000 -0.000001 -0.000001 0.000002 0.000000 -0.000000 -0.424934 0.000000 0.738044 -17.626778 10.024473 -5.300816 8.476340 -21.000993 -20.971360 0.417479 0.000000 0.949852 0.000000 -0.000001 0.000001 -0.000000 0.000000 -0.000001 -0.000000 0.000000 -0.000001 -0.417479 0.000000 0.949852 -0.000000 -0.000000 -0.000000 -0.000000 -0.000000 0.000001 0.000000 -0.000000 0.000000 
0.000000 0.000000 0.000000 -0.000000 0.000000 -0.000000 -0.000000 -0.000000 -18.273281 -0.000003 -0.000001 0.000001 0.424934 0.000000 0.738044 -0.000002 0.000000 -0.000000 0.000002 0.000001 -0.000001 -0.424934 0.000000 0.738044 -23.269102 13.570651 -6.352813 10.360306 -28.565321 -27.641181 0.417479 0.000000 0.949852 0.000000 -0.000001 0.000001 -0.000000 0.000000 -0.000001 -0.000000 0.000000 -0.000001 -0.417479 0.000000 0.949852 -0.000000 -0.000000 -0.000000 -0.000000 -0.000000 0.000001 0.000000 -0.000000 0.000000 
0.000000 0.000000 0.000000 -0.000000 0.000000 -0.000000 -0.000000 -0.000000 -22.198755 0.000000 0.000000 0.000000 0.424934 0.000000 0.738044 -0.000003 0.000001 0.000002 -0.000000 -0.000001 0.000002 -0.424934 0.000000 0.738044 -28.239496 16.750880 -6.986602 11.906163 -35.497999 -33.512091 0.417479 0.000000 0.949852 0.000000 -0.000001 0.000001 -0.000000 0.000000 -0.000001 -0.000000 0.000000 -0.000001 -0.417479 0.000000 0.949852 -0.000000 -0.000000 -0.000000 -0.000000 -0.000000 0.000001 0.000000 -0.000000 0.000000 
0.000000 0.000000 0.000000 -0.000000 0.000000 -0.000000 -0.000000 -0.000000 -25.187337 -0.000002 0.000001 -0.000001 0.424934 0.000000 0.738044 -0.000002 0.000000 -0.000000 -0.000000 0.000000 -0.000002 -0.424934 0.000000 0.738044 -32.036275 19.186389 -7.278531 13.500069 -41.113982 -37.869885 0.417479 0.000000 0.949852 0.000000 -0.000001 0.000001 -0.000000 0.000000 -0.000001 -0.000000 0.000000 -0.000001 -0.417479 0.000000 0.949852 -0.000000 -0.000000 -0.000000 -0.000000 -0.000000 0.000001 0.000000 -0.000000 0.000000 
